<svg xmlns="http://www.w3.org/2000/svg" width="59" height="47" fill="none"><g fill="#AFB1B8" clip-path="url(#a)"><path d="M4.488 39.278c.23.285.352.643.346 1.01a1.605 1.605 0 0 1-.536 1.277c-.447.339-1 .504-1.559.466H0v-6.405h2.683a2.284 2.284 0 0 1 1.487.426 1.464 1.464 0 0 1 .52 1.198c.016.353-.095.7-.311.98-.209.254-.496.43-.817.5.363.067.692.26.926.548Zm-3.213-.967H2.42c.261.02.52-.056.73-.213a.76.76 0 0 0 .246-.626.788.788 0 0 0-.243-.626 1.107 1.107 0 0 0-.751-.215H1.275v1.68Zm1.988 2.456a.795.795 0 0 0 .271-.65.81.81 0 0 0-.277-.658 1.18 1.18 0 0 0-.78-.231H1.276v1.761h1.218c.274.016.546-.062.77-.222ZM9.972 42.031 8.48 39.528h-.561v2.503H6.635v-6.405h2.43a2.39 2.39 0 0 1 1.693.545 2.047 2.047 0 0 1 .18 2.65c-.3.345-.709.575-1.159.65l1.59 2.56H9.972ZM7.92 38.655h1.05c.73 0 1.094-.323 1.094-.97a.956.956 0 0 0-.268-.72 1.134 1.134 0 0 0-.826-.26H7.906l.013 1.95ZM16.99 40.742h-2.558l-.452 1.29h-1.346l2.35-6.334h1.455l2.34 6.333h-1.346l-.442-1.289Zm-.342-.97-.935-2.703-.935 2.703h1.87ZM25.776 42.031H24.5l-2.857-4.355v4.355h-1.272v-6.405h1.272l2.857 4.38v-4.38h1.275v6.405ZM33.05 40.498a2.757 2.757 0 0 1-1.153 1.13c-.555.281-1.17.42-1.792.403h-2.27v-6.405h2.27a3.816 3.816 0 0 1 1.792.395c.488.246.89.636 1.153 1.117a3.735 3.735 0 0 1 0 3.36Zm-1.459-.153a2.352 2.352 0 0 0 0-3.057 2.21 2.21 0 0 0-1.595-.545h-.885v4.146h.885a2.21 2.21 0 0 0 1.595-.544ZM17.789 0S34.24 6.236 33.89 15.26v15.263s-16.439-6.24-16.096-15.263L17.789 0ZM48.548 26.95A22.484 22.484 0 0 1 59 23.082v-4.778a21.466 21.466 0 0 0-10.452 8.646Z"/><path d="M46.68 28.389A22.381 22.381 0 0 1 59 17.303V3.536s-23.43 8.883-22.934 21.733V47s1.044-.397 2.687-1.142c0-.695 0-1.396.075-2.1A22.605 22.605 0 0 1 46.68 28.39Z"/><path d="M44.453 36.462c.123-1.507.397-2.998.82-4.45a21.04 21.04 0 0 0-4.962 13.126 67.95 67.95 0 0 0 4.506-2.384 22.577 22.577 0 0 1-.364-6.292ZM45.384 36.54a21.585 21.585 0 0 0 .29 5.698c6.401-3.846 13.594-9.788 13.317-16.969v-.625a20.972 20.972 0 0 0-12.18 5.713 21.496 21.496 0 0 0-1.427 6.183Z"/></g><defs><clipPath id="a"><path fill="#fff" d="M0 0h59v47H0z"/></clipPath></defs></svg>